<?xml version="1.0" encoding="utf-8"?>
<!-- Generator: Adobe Illustrator 19.2.0, SVG Export Plug-In . SVG Version: 6.00 Build 0)  -->
<svg version="1.1" id="Layer_1" xmlns="http://www.w3.org/2000/svg" xmlns:xlink="http://www.w3.org/1999/xlink" x="0px" y="0px"
	 viewBox="0 0 55.8 60.6" style="enable-background:new 0 0 55.8 60.6;" xml:space="preserve">
<g>
	<g>
		<path d="M27.9,56.2C13.6,56.1,2,44.5,2,30.3C2,16,13.6,4.4,27.9,4.4c14.3,0,25.9,11.6,25.8,25.9C53.8,44.6,42.1,56.2,27.9,56.2z
			 M27.9,6.1C14.6,6.1,3.7,16.9,3.7,30.3c0,13.3,10.8,24.2,24.2,24.2c13.3,0,24.2-10.8,24.2-24.2C52.1,17,41.2,6.1,27.9,6.1z"/>
	</g>
	<path d="M33,30.5h-3.4c0,5.4,0,12.1,0,12.1h-5c0,0,0-6.6,0-12.1h-2.4v-4.3h2.4v-2.8c0-2,0.9-5.1,5.1-5.1l3.7,0v4.1c0,0-2.3,0-2.7,0
		c-0.4,0-1.1,0.2-1.1,1.2v2.5h3.8L33,30.5z"/>
</g>
</svg>
