<?xml version="1.0" encoding="utf-8"?>
<!-- Generator: Adobe Illustrator 19.2.0, SVG Export Plug-In . SVG Version: 6.00 Build 0)  -->
<svg version="1.1" id="Layer_1" xmlns="http://www.w3.org/2000/svg" xmlns:xlink="http://www.w3.org/1999/xlink" x="0px" y="0px"
	 viewBox="0 0 55.8 60.6" style="enable-background:new 0 0 55.8 60.6;" xml:space="preserve">
<g>
	<g>
		<path d="M27.9,56.2C13.6,56.1,2,44.5,2,30.3C2,16,13.6,4.4,27.9,4.4c14.3,0,25.9,11.6,25.9,25.9S42.1,56.2,27.9,56.2z M27.9,6.1
			C14.6,6.1,3.7,16.9,3.7,30.3c0,13.3,10.8,24.2,24.2,24.2c13.3,0,24.2-10.8,24.2-24.2C52.1,17,41.2,6.1,27.9,6.1z"/>
	</g>
	<g>
		<path d="M27.9,24c-3.4,0-6.1,2.7-6.1,6.1c0,3.4,2.7,6.1,6.1,6.1c3.4,0,6.1-2.7,6.1-6.1C34,26.8,31.2,24,27.9,24z M27.9,33.6
			c-1.9,0-3.5-1.6-3.5-3.5c0-1.9,1.6-3.5,3.5-3.5c1.9,0,3.5,1.6,3.5,3.5C31.4,32,29.8,33.6,27.9,33.6z"/>
		<ellipse cx="34.2" cy="23.8" rx="1.4" ry="1.4"/>
		<path d="M33.7,18.3H22c-3.3,0-6,2.7-6,6V36c0,3.3,2.7,6,6,6h11.7c3.3,0,6-2.7,6-6V24.3C39.7,21,37,18.3,33.7,18.3z M37.1,36
			c0,1.9-1.5,3.4-3.4,3.4H22c-1.9,0-3.4-1.5-3.4-3.4V24.3c0-1.9,1.5-3.4,3.4-3.4h11.7c1.9,0,3.4,1.5,3.4,3.4V36z"/>
	</g>
</g>
</svg>
