<?xml version="1.0" encoding="utf-8"?>
<!-- Generator: Adobe Illustrator 19.2.0, SVG Export Plug-In . SVG Version: 6.00 Build 0)  -->
<svg version="1.1" id="Layer_1" xmlns="http://www.w3.org/2000/svg" xmlns:xlink="http://www.w3.org/1999/xlink" x="0px" y="0px"
	 viewBox="0 0 55.8 60.6" style="enable-background:new 0 0 55.8 60.6;" xml:space="preserve">
<g>
	<g>
		<path d="M27.9,56.2C13.6,56.1,2,44.5,2,30.3C2,16,13.6,4.4,27.9,4.4c14.3,0,25.9,11.6,25.9,25.9C53.8,44.6,42.1,56.2,27.9,56.2z
			 M27.9,6.1C14.6,6.1,3.7,16.9,3.7,30.3c0,13.3,10.8,24.2,24.2,24.2c13.3,0,24.2-10.8,24.2-24.2C52.1,17,41.2,6.1,27.9,6.1z"/>
	</g>
	<path d="M37.6,26.5c0,0.2,0,0.4,0,0.6c0,6.4-4.9,13.8-13.8,13.8c-2.7,0-5.3-0.8-7.5-2.2c0.4,0,0.8,0.1,1.2,0.1c2.3,0,4.4-0.8,6-2.1
		c-2.1,0-3.9-1.4-4.5-3.4c0.3,0.1,0.6,0.1,0.9,0.1c0.4,0,0.9-0.1,1.3-0.2c-2.2-0.4-3.9-2.4-3.9-4.8c0,0,0,0,0-0.1
		c0.7,0.4,1.4,0.6,2.2,0.6c-1.3-0.9-2.2-2.4-2.2-4c0-0.9,0.2-1.7,0.7-2.4c2.4,2.9,6,4.9,10,5.1c-0.1-0.4-0.1-0.7-0.1-1.1
		c0-2.7,2.2-4.9,4.9-4.9c1.4,0,2.7,0.6,3.5,1.5c1.1-0.2,2.1-0.6,3.1-1.2c-0.4,1.1-1.1,2.1-2.1,2.7c1-0.1,1.9-0.4,2.8-0.8
		C39.4,25,38.5,25.8,37.6,26.5z"/>
</g>
</svg>
